<svg xmlns="http://www.w3.org/2000/svg" viewBox="0 0 512 512">
  <defs>
    <style>
      .faha-blue { fill: #0077c8; }
    </style>
  </defs>
  <g class="faha-blue">
    <path d="M362.4,36.5c-4.1,19.3-13.2,40.1-27.2,62.5-44.1,70.5-144.1,136.2-144.1,136.2l34.1-137.2c0,0,51.5-61.5,137.2-61.5Z"/>
    <path d="M358.4,120.5c-4.1,19.3-13.2,40.1-27.2,62.5-44.1,70.5-140.1,162.2-140.1,162.2l36.1-98.2c0,0,44.5-56.5,131.2-126.5Z"/>
    <path d="M211.1,304.2c-5,15-12,32-21,48-28,50-98,123.3-98,123.3l25-85.3c0,0,32-41,94-86Z"/>
  </g>
</svg>
