<svg xmlns="http://www.w3.org/2000/svg" viewBox="0 0 64 64">
  <defs>
    <linearGradient id="g" x1="0.3" y1="0" x2="0.7" y2="1">
      <stop offset="0%" stop-color="#2196F3"/>
      <stop offset="100%" stop-color="#1565C0"/>
    </linearGradient>
  </defs>
  <!-- Stroke 1 (leftmost) -->
  <path d="M22 6 C28 6, 30 10, 28 16 L16 44 C14 50, 10 56, 6 56 C4 56, 4 54, 6 50 L18 22 C20 16, 20 10, 16 8 Z" fill="url(#g)"/>
  <!-- Stroke 2 (middle) -->
  <path d="M34 6 C40 6, 42 10, 40 16 L28 44 C26 50, 22 56, 18 56 C16 56, 16 54, 18 50 L30 22 C32 16, 32 10, 28 8 Z" fill="url(#g)"/>
  <!-- Stroke 3 (rightmost) -->
  <path d="M46 6 C52 6, 54 10, 52 16 L40 44 C38 50, 34 56, 30 56 C28 56, 28 54, 30 50 L42 22 C44 16, 44 10, 40 8 Z" fill="url(#g)"/>
</svg>
